<svg id="Layer_1" enable-background="new 0 0 512.096 512.096" height="512" viewBox="0 0 512.096 512.096" width="512" xmlns="http://www.w3.org/2000/svg"><g><path d="m248.043 408.052c0 57.799-46.873 104-103.98 104-28.104 0-54.2-11.18-73.64-30.71-44.853-45.062-38.675-117.51 9.62-155.27v-262.02c0-35.29 28.71-64 64-64s64 28.71 64 64v262.02c25.12 19.65 40 49.989 40 81.98z" fill="#edebfd"/><path d="m248.043 408.052c0 65.743-60.081 114.594-123.94 102.08 46.65-9.059 83.94-50.331 83.94-102.08 0-31.99-14.88-62.33-40-81.98v-262.02c0-28.31-18.47-52.38-44-60.79 40.979-13.615 84 17.079 84 60.79v262.02c25.12 19.65 40 49.989 40 81.98z" fill="#d2d2fc"/><path d="m168.043 357.44v-133.388c0-13.233-10.767-24-24-24s-24 10.767-24 24v133.394c-20.274 9.656-33.18 31.001-31.911 53.795 1.585 28.479 25.165 51.658 53.684 52.769 15.396.598 29.969-4.94 41.044-15.593 28.268-27.191 20.474-74.228-14.817-90.977z" fill="#e48c9b"/><path d="m200.043 408.052c0 35.938-33.321 62.386-67.92 54.7 24.473-5.328 43.92-27.266 43.92-54.7 0-21.75-12.65-41.43-32-50.61v-133.39c0-8.86-4.83-16.62-12-20.77 15.754-9.194 36 2.199 36 20.77v133.39c19.35 9.179 32 28.86 32 50.61z" fill="#cc5b6f"/><g fill="#595965"><path d="m136.043 80.052c0 4.42-3.58 8-8 8h-48v-16h48c4.42 0 8 3.58 8 8z"/><path d="m120.043 112.052c0 4.42-3.58 8-8 8h-32v-16h32c4.42 0 8 3.58 8 8z"/><path d="m136.043 144.052c0 4.42-3.58 8-8 8h-48v-16h48c4.42 0 8 3.58 8 8z"/><path d="m120.043 176.052c0 4.42-3.58 8-8 8h-32v-16h32c4.42 0 8 3.58 8 8z"/></g><path d="m464.043 104.052h-32c-48.523 0-88 39.477-88 88v24c0 4.418 3.582 8 8 8h32c48.523 0 88-39.477 88-88v-24c0-4.419-3.581-8-8-8z" fill="#79cb9c"/><path d="m472.043 112.052v24c0 48.52-39.48 88-88 88h-32c48.52 0 88-39.48 88-88v-24c0-4.42-3.58-8-8-8h32c4.42 0 8 3.58 8 8z" fill="#63ac7d"/><path d="m272.043 104.052h-32c-4.418 0-8 3.582-8 8v24c0 48.523 39.477 88 88 88h32c4.418 0 8-3.582 8-8v-24c0-48.524-39.476-88-88-88z" fill="#79cb9c"/><path d="m360.043 192.052v24c0 4.42-3.58 8-8 8h-32c4.42 0 8-3.58 8-8v-24c0-48.52-39.48-88-88-88h32c48.52 0 88 39.48 88 88z" fill="#63ac7d"/><path d="m422.064 154.784c-2.909-3.325-7.963-3.662-11.289-.752l-50.732 44.39v-22.37c0-4.418-3.582-8-8-8s-8 3.582-8 8v22.37l-50.732-44.39c-3.326-2.911-8.379-2.573-11.289.752s-2.573 8.379.752 11.289l61.268 53.61v36.37c0 4.418 3.582 8 8 8s8-3.582 8-8v-36.37l61.268-53.61c3.327-2.91 3.663-7.964.754-11.289z" fill="#aa7569"/></g></svg>