<svg height="464pt" viewBox="0 -20 464.0185 464" width="464pt" xmlns="http://www.w3.org/2000/svg"><path d="m378.289062 112.046875h45.710938l-24 72h24l-56 88v-80h-24zm0 0" fill="#fdbd40"/><path d="m416 48.046875c-5.582031-.324219-11.179688-.324219-16.761719 0-10.933593-29.667969-39.632812-49.003906-71.238281-48-31.792969-1.035156-60.730469 18.253906-72 48-5.328125-.324219-10.671875-.324219-16 0-12.835938-.359375-25.257812 4.582031-34.339844 13.664063-9.082031 9.078124-14.023437 21.5-13.660156 34.335937 0 26.515625 27.382812 48 56 48h160c28.617188 0 56-21.484375 56-48 .363281-12.835937-4.578125-25.257813-13.660156-34.335937-9.082032-9.082032-21.503906-14.023438-34.339844-13.664063zm0 0" fill="#7d8d9c"/><path d="m112 168.046875h80l-40 120h40l-80 136v-128h-32zm0 0" fill="#fdbd40"/><path d="m256 88.046875c-5.324219-.402344-10.675781-.402344-16 0-10.730469-34.757813-43.667969-57.8125-80-56-36.332031-1.8125-69.269531 21.242187-80 56-5.324219-.402344-10.675781-.402344-16 0-34.65625 1.617187-62.386719 29.347656-64 64 0 32.402344 30.335938 56 64 56h192c33.664062 0 64-23.597656 64-56-1.613281-34.652344-29.34375-62.382813-64-64zm0 0" fill="#aabece"/></svg>